<?xml version="1.0" standalone="no"?>

<svg version="1.1" xmlns="http://www.w3.org/2000/svg" viewBox="0 0 2755.068106953017 2266.8918279377435" width="2755.068106953017" height="2266.8918279377435"><metadata></metadata><defs><symbol id="image-aa16acab1c2ba5563775955ad2252c97c9d71f60"><image preserveAspectRatio="none" width="100%" height="100%"></image></symbol><symbol id="image-a881854340a80c6250ca7cefa521e6f470b333ac"><image preserveAspectRatio="none" width="100%" height="100%"></image></symbol><symbol id="image-52d991d25ae25f467bdf3fd2110a82d2818230c0"><image preserveAspectRatio="none" width="100%" height="100%"></image></symbol><symbol id="image-8e25683aac45c36ee1c90ff4bf005a2257ffb98c"><image preserveAspectRatio="none" width="100%" height="100%"></image></symbol><symbol id="image-92674393d5c50159c717b682e053272f7666bd20"><image preserveAspectRatio="none" width="100%" height="100%"></image></symbol><symbol id="image-1339656424a9181726ea03395f27d62f2f9e9b0d"><image preserveAspectRatio="none" width="100%" height="100%"></image></symbol></defs><rect x="0" y="0" width="2755.068106953017" height="2266.8918279377435" fill="#ffffff"></rect><g stroke-linecap="round"><g transform="translate(326.9036692919017 1007.9182384910679) rotate(0 1119.520572991257 -461.9991844866055)"><path d="M0 0 C0 0, -403.03 166.32, 0 0 C403.03 -166.32, 2015.14 -831.6, 2418.16 -997.92 M0 0 C0 0, -403.03 166.32, 0 0 C403.03 -166.32, 2015.14 -831.6, 2418.16 -997.92" stroke="#ffffff" stroke-width="1" fill="none"></path></g></g><mask></mask><g stroke-linecap="round" transform="translate(13.783860053664284 948.6573990076257) rotate(0 302.09358306801255 169.26096330345365)"><path d="M0 0 C198.25 0, 396.49 0, 604.19 0 M0 0 C214.69 0, 429.39 0, 604.19 0 M604.19 0 C604.19 81.08, 604.19 162.15, 604.19 338.52 M604.19 0 C604.19 94.91, 604.19 189.81, 604.19 338.52 M604.19 338.52 C416.18 338.52, 228.17 338.52, 0 338.52 M604.19 338.52 C473.63 338.52, 343.08 338.52, 0 338.52 M0 338.52 C0 247.19, 0 155.86, 0 0 M0 338.52 C0 228.46, 0 118.4, 0 0" stroke="#1e1e1e" stroke-width="1" fill="none"></path></g><g stroke-linecap="round" transform="translate(18.394840190904688 976.5500749197193) rotate(0 201.0544085908873 113.57495265423728)"><path d="M0 0 L402.11 0 L402.11 227.15 L0 227.15" stroke="none" stroke-width="0" fill="#a5d8ff"></path><path d="M0 0 C132.13 0, 264.26 0, 402.11 0 M0 0 C88.63 0, 177.26 0, 402.11 0 M402.11 0 C402.11 60.64, 402.11 121.28, 402.11 227.15 M402.11 0 C402.11 77.35, 402.11 154.69, 402.11 227.15 M402.11 227.15 C257.68 227.15, 113.25 227.15, 0 227.15 M402.11 227.15 C261.69 227.15, 121.27 227.15, 0 227.15 M0 227.15 C0 148.73, 0 70.32, 0 0 M0 227.15 C0 140.07, 0 52.99, 0 0" stroke="#1e1e1e" stroke-width="1" fill="none"></path></g><g transform="translate(118.13128613530762 1074.0250275739568) rotate(0 101.31796264648438 16.100000000000023)"><text x="101.31796264648438" y="25.942" font-family="Lilita One, sans-serif, Segoe UI Emoji" font-size="28px" fill="#1e1e1e" text-anchor="middle" style="white-space: pre;" direction="ltr" dominant-baseline="alphabetic">CAR INSURANGE</text></g><g stroke-linecap="round" transform="translate(18.800877503832453 1207.7269152977183) rotate(0 201.31065425283873 37.23556375495457)"><path d="M0 0 L402.62 0 L402.62 74.47 L0 74.47" stroke="none" stroke-width="0" fill="#96f2d7"></path><path d="M0 0 C96.25 0, 192.5 0, 402.62 0 M0 0 C136.7 0, 273.4 0, 402.62 0 M402.62 0 C402.62 26.82, 402.62 53.64, 402.62 74.47 M402.62 0 C402.62 28.26, 402.62 56.52, 402.62 74.47 M402.62 74.47 C251.25 74.47, 99.87 74.47, 0 74.47 M402.62 74.47 C266.74 74.47, 130.85 74.47, 0 74.47 M0 74.47 C0 47.59, 0 20.72, 0 0 M0 74.47 C0 54.67, 0 34.86, 0 0" stroke="#1e1e1e" stroke-width="1" fill="none"></path></g><g transform="translate(194.81353523567532 1228.8624790526728) rotate(0 25.297996520996094 16.100000000000023)"><text x="25.297996520996094" y="25.942" font-family="Lilita One, sans-serif, Segoe UI Emoji" font-size="28px" fill="#1e1e1e" text-anchor="middle" style="white-space: pre;" direction="ltr" dominant-baseline="alphabetic">GAS</text></g><g stroke-linecap="round" transform="translate(424.6473537877023 976.3760152994292) rotate(0 40.92905214828829 152.51558729975397)"><path d="M0 0 L81.86 0 L81.86 305.03 L0 305.03" stroke="none" stroke-width="0" fill="#d0bfff"></path><path d="M0 0 C19.59 0, 39.18 0, 81.86 0 M0 0 C19.79 0, 39.58 0, 81.86 0 M81.86 0 C81.86 93.73, 81.86 187.46, 81.86 305.03 M81.86 0 C81.86 94.01, 81.86 188.02, 81.86 305.03 M81.86 305.03 C61.13 305.03, 40.4 305.03, 0 305.03 M81.86 305.03 C59.39 305.03, 36.93 305.03, 0 305.03 M0 305.03 C0 214.02, 0 123.02, 0 0 M0 305.03 C0 239.66, 0 174.29, 0 0" stroke="#1e1e1e" stroke-width="1" fill="none"></path></g><g transform="translate(432.2484411532755 1119.6916025991832) rotate(0 33.327964782714844 9.199999999999989)"><text x="33.327964782714844" y="14.824" font-family="Lilita One, sans-serif, Segoe UI Emoji" font-size="16px" fill="#1e1e1e" text-anchor="middle" style="white-space: pre;" direction="ltr" dominant-baseline="alphabetic">GROCERY</text></g><g stroke-linecap="round" transform="translate(511.1631783530529 977.2001768248462) rotate(0 50.80298262695737 90.29064721871634)"><path d="M0 0 L101.61 0 L101.61 180.58 L0 180.58" stroke="none" stroke-width="0" fill="#eebefa"></path><path d="M0 0 C34.9 0, 69.8 0, 101.61 0 M0 0 C25.06 0, 50.13 0, 101.61 0 M101.61 0 C101.61 70.03, 101.61 140.06, 101.61 180.58 M101.61 0 C101.61 56.09, 101.61 112.17, 101.61 180.58 M101.61 180.58 C80.9 180.58, 60.2 180.58, 0 180.58 M101.61 180.58 C72.26 180.58, 42.92 180.58, 0 180.58 M0 180.58 C0 114.7, 0 48.82, 0 0 M0 180.58 C0 132.65, 0 84.71, 0 0" stroke="#1e1e1e" stroke-width="1" fill="none"></path></g><g transform="translate(547.9821750791316 1058.2908240435627) rotate(0 13.983985900878906 9.199999999999989)"><text x="13.983985900878906" y="14.824" font-family="Lilita One, sans-serif, Segoe UI Emoji" font-size="16px" fill="#1e1e1e" text-anchor="middle" style="white-space: pre;" direction="ltr" dominant-baseline="alphabetic">FUN</text></g><g stroke-linecap="round" transform="translate(511.08208053476847 1161.955024012861) rotate(0 50.62031753990664 59.8357088173359)"><path d="M0 0 L101.24 0 L101.24 119.67 L0 119.67" stroke="none" stroke-width="0" fill="#ffd8a8"></path><path d="M0 0 C21.65 0, 43.3 0, 101.24 0 M0 0 C20.38 0, 40.75 0, 101.24 0 M101.24 0 C101.24 40.82, 101.24 81.63, 101.24 119.67 M101.24 0 C101.24 30.38, 101.24 60.76, 101.24 119.67 M101.24 119.67 C78.62 119.67, 55.99 119.67, 0 119.67 M101.24 119.67 C78.36 119.67, 55.48 119.67, 0 119.67 M0 119.67 C0 75.29, 0 30.9, 0 0 M0 119.67 C0 87.86, 0 56.04, 0 0" stroke="#1e1e1e" stroke-width="1" fill="none"></path></g><g transform="translate(524.0304315219405 1212.5907328301969) rotate(0 37.671966552734375 9.200000000000045)"><text x="37.671966552734375" y="14.824" font-family="Lilita One, sans-serif, Segoe UI Emoji" font-size="16px" fill="#1e1e1e" text-anchor="middle" style="white-space: pre;" direction="ltr" dominant-baseline="alphabetic">SHOPPING</text></g><g transform="translate(15.87483554269511 1310.237661664362) rotate(0 203.5739792153313 60)"><text x="0" y="15.264000000000001" font-family="Nunito, sans-serif, Segoe UI Emoji" font-size="16px" fill="#1971c2" text-anchor="start" style="white-space: pre;" direction="ltr" dominant-baseline="alphabetic">Goals?</text><text x="0" y="35.264" font-family="Nunito, sans-serif, Segoe UI Emoji" font-size="16px" fill="#1971c2" text-anchor="start" style="white-space: pre;" direction="ltr" dominant-baseline="alphabetic"></text><text x="0" y="55.264" font-family="Nunito, sans-serif, Segoe UI Emoji" font-size="16px" fill="#1971c2" text-anchor="start" style="white-space: pre;" direction="ltr" dominant-baseline="alphabetic">1. Visualize and edit theoretical budget</text><text x="0" y="75.264" font-family="Nunito, sans-serif, Segoe UI Emoji" font-size="16px" fill="#1971c2" text-anchor="start" style="white-space: pre;" direction="ltr" dominant-baseline="alphabetic">    - Treemap</text><text x="0" y="95.264" font-family="Nunito, sans-serif, Segoe UI Emoji" font-size="16px" fill="#1971c2" text-anchor="start" style="white-space: pre;" direction="ltr" dominant-baseline="alphabetic">    - Drill down all the way to leaf expenses</text><text x="0" y="115.264" font-family="Nunito, sans-serif, Segoe UI Emoji" font-size="16px" fill="#1971c2" text-anchor="start" style="white-space: pre;" direction="ltr" dominant-baseline="alphabetic">2. See how much you&#39;re saving a month</text></g><g stroke-linecap="round" transform="translate(385.4922957748513 981.8939591972759) rotate(0 13.91660712338853 11.282373050552962)"><path d="M5.64 0 C10.66 0, 15.69 0, 22.19 0 C25.95 0, 27.83 1.88, 27.83 5.64 C27.83 8.49, 27.83 11.34, 27.83 16.92 C27.83 20.68, 25.95 22.56, 22.19 22.56 C17.95 22.56, 13.71 22.56, 5.64 22.56 C1.88 22.56, 0 20.68, 0 16.92 C0 13.52, 0 10.11, 0 5.64 C0 1.88, 1.88 0, 5.64 0" stroke="none" stroke-width="0" fill="#e9ecef"></path><path d="M5.64 0 C10.35 0, 15.06 0, 22.19 0 M5.64 0 C9.77 0, 13.9 0, 22.19 0 M22.19 0 C25.95 0, 27.83 1.88, 27.83 5.64 M22.19 0 C25.95 0, 27.83 1.88, 27.83 5.64 M27.83 5.64 C27.83 10.1, 27.83 14.56, 27.83 16.92 M27.83 5.64 C27.83 9.28, 27.83 12.91, 27.83 16.92 M27.83 16.92 C27.83 20.68, 25.95 22.56, 22.19 22.56 M27.83 16.92 C27.83 20.68, 25.95 22.56, 22.19 22.56 M22.19 22.56 C15.71 22.56, 9.23 22.56, 5.64 22.56 M22.19 22.56 C17.76 22.56, 13.33 22.56, 5.64 22.56 M5.64 22.56 C1.88 22.56, 0 20.68, 0 16.92 M5.64 22.56 C1.88 22.56, 0 20.68, 0 16.92 M0 16.92 C0 14.19, 0 11.46, 0 5.64 M0 16.92 C0 12.55, 0 8.17, 0 5.64 M0 5.64 C0 1.88, 1.88 0, 5.64 0 M0 5.64 C0 1.88, 1.88 0, 5.64 0" stroke="#1e1e1e" stroke-width="1" fill="none"></path></g><g transform="translate(390.0113063076101 983.3454170230682) rotate(0 9.819116945118594 9.819116945118594)"><use href="#image-1339656424a9181726ea03395f27d62f2f9e9b0d" width="20" height="20" opacity="1"></use></g><g stroke-linecap="round" transform="translate(388.47300339971207 1211.1672102643392) rotate(0 13.91660712338853 11.28237305055302)"><path d="M5.64 0 C9.63 0, 13.61 0, 22.19 0 C25.95 0, 27.83 1.88, 27.83 5.64 C27.83 9.09, 27.83 12.55, 27.83 16.92 C27.83 20.68, 25.95 22.56, 22.19 22.56 C16.64 22.56, 11.09 22.56, 5.64 22.56 C1.88 22.56, 0 20.68, 0 16.92 C0 12.46, 0 7.99, 0 5.64 C0 1.88, 1.88 0, 5.64 0" stroke="none" stroke-width="0" fill="#e9ecef"></path><path d="M5.64 0 C11.06 0, 16.48 0, 22.19 0 M5.64 0 C9.96 0, 14.28 0, 22.19 0 M22.19 0 C25.95 0, 27.83 1.88, 27.83 5.64 M22.19 0 C25.95 0, 27.83 1.88, 27.83 5.64 M27.83 5.64 C27.83 9.54, 27.83 13.43, 27.83 16.92 M27.83 5.64 C27.83 9.78, 27.83 13.92, 27.83 16.92 M27.83 16.92 C27.83 20.68, 25.95 22.56, 22.19 22.56 M27.83 16.92 C27.83 20.68, 25.95 22.56, 22.19 22.56 M22.19 22.56 C16.01 22.56, 9.82 22.56, 5.64 22.56 M22.19 22.56 C16.15 22.56, 10.11 22.56, 5.64 22.56 M5.64 22.56 C1.88 22.56, 0 20.68, 0 16.92 M5.64 22.56 C1.88 22.56, 0 20.68, 0 16.92 M0 16.92 C0 12.56, 0 8.19, 0 5.64 M0 16.92 C0 12.82, 0 8.72, 0 5.64 M0 5.64 C0 1.88, 1.88 0, 5.64 0 M0 5.64 C0 1.88, 1.88 0, 5.64 0" stroke="#1e1e1e" stroke-width="1" fill="none"></path></g><g transform="translate(392.9920139324704 1212.6186680901315) rotate(0 9.819116945118594 9.819116945118594)"><use href="#image-1339656424a9181726ea03395f27d62f2f9e9b0d" width="20" height="20" opacity="1"></use></g><g stroke-linecap="round" transform="translate(473.5949339654785 981.2061611956813) rotate(0 13.91660712338853 11.282373050552962)"><path d="M5.64 0 C9.33 0, 13.01 0, 22.19 0 C25.95 0, 27.83 1.88, 27.83 5.64 C27.83 9.83, 27.83 14.03, 27.83 16.92 C27.83 20.68, 25.95 22.56, 22.19 22.56 C16.19 22.56, 10.19 22.56, 5.64 22.56 C1.88 22.56, 0 20.68, 0 16.92 C0 13.4, 0 9.87, 0 5.64 C0 1.88, 1.88 0, 5.64 0" stroke="none" stroke-width="0" fill="#e9ecef"></path><path d="M5.64 0 C10.38 0, 15.12 0, 22.19 0 M5.64 0 C9.85 0, 14.06 0, 22.19 0 M22.19 0 C25.95 0, 27.83 1.88, 27.83 5.64 M22.19 0 C25.95 0, 27.83 1.88, 27.83 5.64 M27.83 5.64 C27.83 8.36, 27.83 11.09, 27.83 16.92 M27.83 5.64 C27.83 8.05, 27.83 10.46, 27.83 16.92 M27.83 16.92 C27.83 20.68, 25.95 22.56, 22.19 22.56 M27.83 16.92 C27.83 20.68, 25.95 22.56, 22.19 22.56 M22.19 22.56 C16.83 22.56, 11.47 22.56, 5.64 22.56 M22.19 22.56 C17.24 22.56, 12.29 22.56, 5.64 22.56 M5.64 22.56 C1.88 22.56, 0 20.68, 0 16.92 M5.64 22.56 C1.88 22.56, 0 20.68, 0 16.92 M0 16.92 C0 14.21, 0 11.49, 0 5.64 M0 16.92 C0 12.61, 0 8.3, 0 5.64 M0 5.64 C0 1.88, 1.88 0, 5.64 0 M0 5.64 C0 1.88, 1.88 0, 5.64 0" stroke="#1e1e1e" stroke-width="1" fill="none"></path></g><g transform="translate(478.11394449823683 982.6576190214735) rotate(0 9.819116945118594 9.819116945118594)"><use href="#image-1339656424a9181726ea03395f27d62f2f9e9b0d" width="20" height="20" opacity="1"></use></g><g stroke-linecap="round" transform="translate(581.0523575184288 981.621429209179) rotate(0 13.91660712338853 11.282373050552962)"><path d="M5.64 0 C11.78 0, 17.92 0, 22.19 0 C25.95 0, 27.83 1.88, 27.83 5.64 C27.83 9.12, 27.83 12.59, 27.83 16.92 C27.83 20.68, 25.95 22.56, 22.19 22.56 C18.66 22.56, 15.13 22.56, 5.64 22.56 C1.88 22.56, 0 20.68, 0 16.92 C0 12.71, 0 8.5, 0 5.64 C0 1.88, 1.88 0, 5.64 0" stroke="none" stroke-width="0" fill="#e9ecef"></path><path d="M5.64 0 C11.19 0, 16.75 0, 22.19 0 M5.64 0 C10.48 0, 15.32 0, 22.19 0 M22.19 0 C25.95 0, 27.83 1.88, 27.83 5.64 M22.19 0 C25.95 0, 27.83 1.88, 27.83 5.64 M27.83 5.64 C27.83 8.94, 27.83 12.24, 27.83 16.92 M27.83 5.64 C27.83 9.77, 27.83 13.89, 27.83 16.92 M27.83 16.92 C27.83 20.68, 25.95 22.56, 22.19 22.56 M27.83 16.92 C27.83 20.68, 25.95 22.56, 22.19 22.56 M22.19 22.56 C17.54 22.56, 12.89 22.56, 5.64 22.56 M22.19 22.56 C16.93 22.56, 11.66 22.56, 5.64 22.56 M5.64 22.56 C1.88 22.56, 0 20.68, 0 16.92 M5.64 22.56 C1.88 22.56, 0 20.68, 0 16.92 M0 16.92 C0 13.02, 0 9.11, 0 5.64 M0 16.92 C0 12.98, 0 9.03, 0 5.64 M0 5.64 C0 1.88, 1.88 0, 5.64 0 M0 5.64 C0 1.88, 1.88 0, 5.64 0" stroke="#1e1e1e" stroke-width="1" fill="none"></path></g><g transform="translate(585.5713680511872 983.0728870349712) rotate(0 9.819116945118594 9.819116945118594)"><use href="#image-1339656424a9181726ea03395f27d62f2f9e9b0d" width="20" height="20" opacity="1"></use></g><g stroke-linecap="round" transform="translate(579.1721774968337 1166.387261271802) rotate(0 13.91660712338853 11.282373050552962)"><path d="M5.64 0 C10.71 0, 15.77 0, 22.19 0 C25.95 0, 27.83 1.88, 27.83 5.64 C27.83 9.42, 27.83 13.19, 27.83 16.92 C27.83 20.68, 25.95 22.56, 22.19 22.56 C17.22 22.56, 12.25 22.56, 5.64 22.56 C1.88 22.56, 0 20.68, 0 16.92 C0 14.56, 0 12.2, 0 5.64 C0 1.88, 1.88 0, 5.64 0" stroke="none" stroke-width="0" fill="#e9ecef"></path><path d="M5.64 0 C9.4 0, 13.16 0, 22.19 0 M5.64 0 C11.79 0, 17.93 0, 22.19 0 M22.19 0 C25.95 0, 27.83 1.88, 27.83 5.64 M22.19 0 C25.95 0, 27.83 1.88, 27.83 5.64 M27.83 5.64 C27.83 8.09, 27.83 10.54, 27.83 16.92 M27.83 5.64 C27.83 9.88, 27.83 14.13, 27.83 16.92 M27.83 16.92 C27.83 20.68, 25.95 22.56, 22.19 22.56 M27.83 16.92 C27.83 20.68, 25.95 22.56, 22.19 22.56 M22.19 22.56 C15.85 22.56, 9.51 22.56, 5.64 22.56 M22.19 22.56 C17.02 22.56, 11.84 22.56, 5.64 22.56 M5.64 22.56 C1.88 22.56, 0 20.68, 0 16.92 M5.64 22.56 C1.88 22.56, 0 20.68, 0 16.92 M0 16.92 C0 12.48, 0 8.04, 0 5.64 M0 16.92 C0 12.6, 0 8.27, 0 5.64 M0 5.64 C0 1.88, 1.88 0, 5.64 0 M0 5.64 C0 1.88, 1.88 0, 5.64 0" stroke="#1e1e1e" stroke-width="1" fill="none"></path></g><g transform="translate(583.691188029592 1167.838719097594) rotate(0 9.819116945118594 9.819116945118594)"><use href="#image-1339656424a9181726ea03395f27d62f2f9e9b0d" width="20" height="20" opacity="1"></use></g><g stroke-linecap="round" transform="translate(553.5802469054884 953.2159169438546) rotate(0 29.34549229555887 9.80220794221458)"><path d="M4.9 0 C23.57 0, 42.24 0, 53.79 0 C57.06 0, 58.69 1.63, 58.69 4.9 C58.69 8.47, 58.69 12.04, 58.69 14.7 C58.69 17.97, 57.06 19.6, 53.79 19.6 C41.84 19.6, 29.89 19.6, 4.9 19.6 C1.63 19.6, 0 17.97, 0 14.7 C0 11.34, 0 7.97, 0 4.9 C0 1.63, 1.63 0, 4.9 0" stroke="none" stroke-width="0" fill="#e9ecef"></path><path d="M4.9 0 C20.69 0, 36.47 0, 53.79 0 M4.9 0 C21.42 0, 37.93 0, 53.79 0 M53.79 0 C57.06 0, 58.69 1.63, 58.69 4.9 M53.79 0 C57.06 0, 58.69 1.63, 58.69 4.9 M58.69 4.9 C58.69 7.87, 58.69 10.83, 58.69 14.7 M58.69 4.9 C58.69 8.22, 58.69 11.53, 58.69 14.7 M58.69 14.7 C58.69 17.97, 57.06 19.6, 53.79 19.6 M58.69 14.7 C58.69 17.97, 57.06 19.6, 53.79 19.6 M53.79 19.6 C34.37 19.6, 14.95 19.6, 4.9 19.6 M53.79 19.6 C36.31 19.6, 18.84 19.6, 4.9 19.6 M4.9 19.6 C1.63 19.6, 0 17.97, 0 14.7 M4.9 19.6 C1.63 19.6, 0 17.97, 0 14.7 M0 14.7 C0 11.07, 0 7.43, 0 4.9 M0 14.7 C0 10.96, 0 7.21, 0 4.9 M0 4.9 C0 1.63, 1.63 0, 4.9 0 M0 4.9 C0 1.63, 1.63 0, 4.9 0" stroke="#1e1e1e" stroke-width="1" fill="none"></path></g><g stroke-linecap="round"><g transform="translate(560.7473341558166 963.1373839922851) rotate(0 4.26655281129274 0.029818629008730113)"><path d="M0 0 C1.42 0.01, 7.11 0.05, 8.53 0.06 M0 0 C1.42 0.01, 7.11 0.05, 8.53 0.06" stroke="#1e1e1e" stroke-width="1" fill="none"></path></g></g><mask></mask><g stroke-linecap="round"><g transform="translate(564.943079644378 958.9729690707413) rotate(0 0.08631957273905755 4.238057552956434)"><path d="M0 0 C0.03 1.41, 0.14 7.06, 0.17 8.48 M0 0 C0.03 1.41, 0.14 7.06, 0.17 8.48" stroke="#1e1e1e" stroke-width="1" fill="none"></path></g></g><mask></mask><g transform="translate(573.1014062576546 958.5875176204303) rotate(0 17.871702581916907 4.404429268988849)"><text x="0" y="6.722920836184544" font-family="Nunito, sans-serif, Segoe UI Emoji" font-size="7.0470868303821215px" fill="#1e1e1e" text-anchor="start" style="white-space: pre;" direction="ltr" dominant-baseline="alphabetic">Add Group</text></g><g transform="translate(282.3030372084427 953.4029248485161) rotate(0 25.783981323242188 9.199999999999989)"><text x="0" y="14.824" font-family="Lilita One, sans-serif, Segoe UI Emoji" font-size="16px" fill="#1e1e1e" text-anchor="start" style="white-space: pre;" direction="ltr" dominant-baseline="alphabetic">LIVING</text></g><g stroke-linecap="round"><g transform="translate(31.799555213392523 958.3658876420735) rotate(0 -3.977514856962898 4.355086575457904)"><path d="M0 0 C-1.33 0.8, -7.93 3.34, -7.95 4.79 C-7.98 6.24, -1.46 8.06, -0.16 8.71 M0 0 C-1.33 0.8, -7.93 3.34, -7.95 4.79 C-7.98 6.24, -1.46 8.06, -0.16 8.71" stroke="#1e1e1e" stroke-width="1" fill="none"></path></g></g><mask></mask><g stroke-linecap="round"><g transform="translate(24.00347452054848 963.0005057783491) rotate(0 8.465353472491643 0.09223882132573635)"><path d="M0 0 C2.82 0.03, 14.11 0.15, 16.93 0.18 M0 0 C2.82 0.03, 14.11 0.15, 16.93 0.18" stroke="#1e1e1e" stroke-width="1" fill="none"></path></g></g><mask></mask><g stroke-linecap="round" transform="translate(18.124211420788015 587.1258198641792) rotate(0 302.09358306801255 169.26096330345365)"><path d="M0 0 C178.17 0, 356.33 0, 604.19 0 M0 0 C211.12 0, 422.24 0, 604.19 0 M604.19 0 C604.19 99.65, 604.19 199.3, 604.19 338.52 M604.19 0 C604.19 97.86, 604.19 195.72, 604.19 338.52 M604.19 338.52 C371.89 338.52, 139.59 338.52, 0 338.52 M604.19 338.52 C369.17 338.52, 134.15 338.52, 0 338.52 M0 338.52 C0 269.46, 0 200.39, 0 0 M0 338.52 C0 268.83, 0 199.14, 0 0" stroke="#1e1e1e" stroke-width="1" fill="none"></path></g><g stroke-linecap="round" transform="translate(22.73519155802842 614.9336248073043) rotate(0 201.0544085908873 113.57495265423728)"><path d="M0 0 L402.11 0 L402.11 227.15 L0 227.15" stroke="none" stroke-width="0" fill="#a5d8ff"></path><path d="M0 0 C88.93 0, 177.87 0, 402.11 0 M0 0 C116.63 0, 233.26 0, 402.11 0 M402.11 0 C402.11 82.32, 402.11 164.63, 402.11 227.15 M402.11 0 C402.11 63.74, 402.11 127.47, 402.11 227.15 M402.11 227.15 C247.34 227.15, 92.58 227.15, 0 227.15 M402.11 227.15 C261.41 227.15, 120.71 227.15, 0 227.15 M0 227.15 C0 178.95, 0 130.75, 0 0 M0 227.15 C0 155.88, 0 84.62, 0 0" stroke="#1e1e1e" stroke-width="1" fill="none"></path></g><g transform="translate(181.90161491942354 712.4085774615417) rotate(0 41.88798522949219 16.100000000000023)"><text x="41.88798522949219" y="25.942" font-family="Lilita One, sans-serif, Segoe UI Emoji" font-size="28px" fill="#1e1e1e" text-anchor="middle" style="white-space: pre;" direction="ltr" dominant-baseline="alphabetic">HOUSE</text></g><g stroke-linecap="round" transform="translate(23.00417072519531 846.3323943000318) rotate(0 201.31065425283873 37.23556375495457)"><path d="M0 0 L402.62 0 L402.62 74.47 L0 74.47" stroke="none" stroke-width="0" fill="#96f2d7"></path><path d="M0 0 C146.78 0, 293.57 0, 402.62 0 M0 0 C146.42 0, 292.84 0, 402.62 0 M402.62 0 C402.62 17.15, 402.62 34.31, 402.62 74.47 M402.62 0 C402.62 18.96, 402.62 37.91, 402.62 74.47 M402.62 74.47 C283.85 74.47, 165.08 74.47, 0 74.47 M402.62 74.47 C304.5 74.47, 206.38 74.47, 0 74.47 M0 74.47 C0 51.08, 0 27.69, 0 0 M0 74.47 C0 59.4, 0 44.33, 0 0" stroke="#1e1e1e" stroke-width="1" fill="none"></path></g><g transform="translate(179.1928385888741 867.4679580549863) rotate(0 45.121986389160156 16.100000000000023)"><text x="45.121986389160156" y="25.942" font-family="Lilita One, sans-serif, Segoe UI Emoji" font-size="28px" fill="#1e1e1e" text-anchor="middle" style="white-space: pre;" direction="ltr" dominant-baseline="alphabetic">LIVING</text></g><g stroke-linecap="round" transform="translate(428.98770515482556 615.9372482420742) rotate(0 94.19683961028568 152.50425107479455)"><path d="M0 0 L188.39 0 L188.39 305.01 L0 305.01" stroke="none" stroke-width="0" fill="#b2f2bb"></path><path d="M0 0 C63.46 0, 126.92 0, 188.39 0 M0 0 C67.38 0, 134.76 0, 188.39 0 M188.39 0 C188.39 109.67, 188.39 219.33, 188.39 305.01 M188.39 0 C188.39 79.61, 188.39 159.23, 188.39 305.01 M188.39 305.01 C132.41 305.01, 76.42 305.01, 0 305.01 M188.39 305.01 C130.23 305.01, 72.06 305.01, 0 305.01 M0 305.01 C0 217.37, 0 129.74, 0 0 M0 305.01 C0 220.37, 0 135.73, 0 0" stroke="#1e1e1e" stroke-width="1" fill="none"></path></g><g transform="translate(466.6805545917714 752.3414993168689) rotate(0 56.503990173339844 16.100000000000023)"><text x="56.503990173339844" y="25.942" font-family="Lilita One, sans-serif, Segoe UI Emoji" font-size="28px" fill="#1e1e1e" text-anchor="middle" style="white-space: pre;" direction="ltr" dominant-baseline="alphabetic">SAVINGS</text></g><g stroke-linecap="round" transform="translate(389.8326471419741 620.3623800538292) rotate(0 13.91660712338853 11.282373050552962)"><path d="M5.64 0 C9.93 0, 14.23 0, 22.19 0 C25.95 0, 27.83 1.88, 27.83 5.64 C27.83 7.94, 27.83 10.24, 27.83 16.92 C27.83 20.68, 25.95 22.56, 22.19 22.56 C18.53 22.56, 14.87 22.56, 5.64 22.56 C1.88 22.56, 0 20.68, 0 16.92 C0 13.26, 0 9.6, 0 5.64 C0 1.88, 1.88 0, 5.64 0" stroke="none" stroke-width="0" fill="#e9ecef"></path><path d="M5.64 0 C9.93 0, 14.22 0, 22.19 0 M5.64 0 C10.01 0, 14.38 0, 22.19 0 M22.19 0 C25.95 0, 27.83 1.88, 27.83 5.64 M22.19 0 C25.95 0, 27.83 1.88, 27.83 5.64 M27.83 5.64 C27.83 8.04, 27.83 10.43, 27.83 16.92 M27.83 5.64 C27.83 9.18, 27.83 12.72, 27.83 16.92 M27.83 16.92 C27.83 20.68, 25.95 22.56, 22.19 22.56 M27.83 16.92 C27.83 20.68, 25.95 22.56, 22.19 22.56 M22.19 22.56 C16.22 22.56, 10.25 22.56, 5.64 22.56 M22.19 22.56 C17.94 22.56, 13.69 22.56, 5.64 22.56 M5.64 22.56 C1.88 22.56, 0 20.68, 0 16.92 M5.64 22.56 C1.88 22.56, 0 20.68, 0 16.92 M0 16.92 C0 12.84, 0 8.75, 0 5.64 M0 16.92 C0 13.45, 0 9.98, 0 5.64 M0 5.64 C0 1.88, 1.88 0, 5.64 0 M0 5.64 C0 1.88, 1.88 0, 5.64 0" stroke="#1e1e1e" stroke-width="1" fill="none"></path></g><g transform="translate(394.35165767473336 621.8138378796216) rotate(0 9.819116945118594 9.819116945118594)"><use href="#image-1339656424a9181726ea03395f27d62f2f9e9b0d" width="20" height="20" opacity="1"></use></g><g stroke-linecap="round" transform="translate(392.8133547668358 849.6356311208926) rotate(0 13.91660712338853 11.282373050552962)"><path d="M5.64 0 C10.26 0, 14.89 0, 22.19 0 C25.95 0, 27.83 1.88, 27.83 5.64 C27.83 9.96, 27.83 14.27, 27.83 16.92 C27.83 20.68, 25.95 22.56, 22.19 22.56 C18.48 22.56, 14.78 22.56, 5.64 22.56 C1.88 22.56, 0 20.68, 0 16.92 C0 12.99, 0 9.05, 0 5.64 C0 1.88, 1.88 0, 5.64 0" stroke="none" stroke-width="0" fill="#e9ecef"></path><path d="M5.64 0 C9.75 0, 13.85 0, 22.19 0 M5.64 0 C11.81 0, 17.98 0, 22.19 0 M22.19 0 C25.95 0, 27.83 1.88, 27.83 5.64 M22.19 0 C25.95 0, 27.83 1.88, 27.83 5.64 M27.83 5.64 C27.83 9.18, 27.83 12.73, 27.83 16.92 M27.83 5.64 C27.83 7.92, 27.83 10.21, 27.83 16.92 M27.83 16.92 C27.83 20.68, 25.95 22.56, 22.19 22.56 M27.83 16.92 C27.83 20.68, 25.95 22.56, 22.19 22.56 M22.19 22.56 C18.42 22.56, 14.64 22.56, 5.64 22.56 M22.19 22.56 C18.77 22.56, 15.34 22.56, 5.64 22.56 M5.64 22.56 C1.88 22.56, 0 20.68, 0 16.92 M5.64 22.56 C1.88 22.56, 0 20.68, 0 16.92 M0 16.92 C0 13.46, 0 10, 0 5.64 M0 16.92 C0 12.65, 0 8.38, 0 5.64 M0 5.64 C0 1.88, 1.88 0, 5.64 0 M0 5.64 C0 1.88, 1.88 0, 5.64 0" stroke="#1e1e1e" stroke-width="1" fill="none"></path></g><g transform="translate(397.33236529959413 851.0870889466848) rotate(0 9.819116945118594 9.819116945118594)"><use href="#image-1339656424a9181726ea03395f27d62f2f9e9b0d" width="20" height="20" opacity="1"></use></g><g stroke-linecap="round" transform="translate(557.9205982726116 591.684337800408) rotate(0 29.34549229555887 9.802207942214608)"><path d="M4.9 0 C18.05 0, 31.21 0, 53.79 0 C57.06 0, 58.69 1.63, 58.69 4.9 C58.69 7.48, 58.69 10.06, 58.69 14.7 C58.69 17.97, 57.06 19.6, 53.79 19.6 C40.57 19.6, 27.35 19.6, 4.9 19.6 C1.63 19.6, 0 17.97, 0 14.7 C0 12.31, 0 9.92, 0 4.9 C0 1.63, 1.63 0, 4.9 0" stroke="none" stroke-width="0" fill="#e9ecef"></path><path d="M4.9 0 C14.88 0, 24.85 0, 53.79 0 M4.9 0 C14.97 0, 25.03 0, 53.79 0 M53.79 0 C57.06 0, 58.69 1.63, 58.69 4.9 M53.79 0 C57.06 0, 58.69 1.63, 58.69 4.9 M58.69 4.9 C58.69 6.97, 58.69 9.03, 58.69 14.7 M58.69 4.9 C58.69 8.63, 58.69 12.36, 58.69 14.7 M58.69 14.7 C58.69 17.97, 57.06 19.6, 53.79 19.6 M58.69 14.7 C58.69 17.97, 57.06 19.6, 53.79 19.6 M53.79 19.6 C37.48 19.6, 21.17 19.6, 4.9 19.6 M53.79 19.6 C41.66 19.6, 29.54 19.6, 4.9 19.6 M4.9 19.6 C1.63 19.6, 0 17.97, 0 14.7 M4.9 19.6 C1.63 19.6, 0 17.97, 0 14.7 M0 14.7 C0 12.45, 0 10.2, 0 4.9 M0 14.7 C0 12.65, 0 10.59, 0 4.9 M0 4.9 C0 1.63, 1.63 0, 4.9 0 M0 4.9 C0 1.63, 1.63 0, 4.9 0" stroke="#1e1e1e" stroke-width="1" fill="none"></path></g><g transform="translate(577.4417576247779 597.0559384769838) rotate(0 17.871702581916907 4.404429268988821)"><text x="0" y="6.722920836184544" font-family="Nunito, sans-serif, Segoe UI Emoji" font-size="7.0470868303821215px" fill="#1e1e1e" text-anchor="start" style="white-space: pre;" direction="ltr" dominant-baseline="alphabetic">Add Group</text></g><g stroke-linecap="round"><g transform="translate(565.0876855229399 601.6058048488385) rotate(0 4.26655281129274 0.02981862900870169)"><path d="M0 0 C1.42 0.01, 7.11 0.05, 8.53 0.06 M0 0 C1.42 0.01, 7.11 0.05, 8.53 0.06" stroke="#1e1e1e" stroke-width="1" fill="none"></path></g></g><mask></mask><g stroke-linecap="round"><g transform="translate(569.2834310115013 597.4413899272947) rotate(0 0.08631957273905755 4.238057552956434)"><path d="M0 0 C0.03 1.41, 0.14 7.06, 0.17 8.48 M0 0 C0.03 1.41, 0.14 7.06, 0.17 8.48" stroke="#1e1e1e" stroke-width="1" fill="none"></path></g></g><mask></mask><g transform="translate(261.20774446714677 591.3313005794828) rotate(0 27.631973266601562 9.199999999999989)"><text x="0" y="14.824" font-family="Lilita One, sans-serif, Segoe UI Emoji" font-size="16px" fill="#1e1e1e" text-anchor="start" style="white-space: pre;" direction="ltr" dominant-baseline="alphabetic">BUDGET</text></g><g transform="translate(202.2227684135887 741.4097362801473) rotate(0 23.113193452473524 9.6983909980828)"><text x="0" y="14.803624019473586" font-family="Nunito, sans-serif, Segoe UI Emoji" font-size="15.517425596932481px" fill="#1e1e1e" text-anchor="start" style="white-space: pre;" direction="ltr" dominant-baseline="alphabetic">$xx.xx</text></g><g transform="translate(502.7484214176234 781.3829069771406) rotate(0 23.113193452473524 9.6983909980828)"><text x="0" y="14.803624019473586" font-family="Nunito, sans-serif, Segoe UI Emoji" font-size="15.517425596932481px" fill="#1e1e1e" text-anchor="start" style="white-space: pre;" direction="ltr" dominant-baseline="alphabetic">$xx.xx</text></g><g transform="translate(200.30384193228247 893.7098482963464) rotate(0 23.113193452473524 9.6983909980828)"><text x="0" y="14.803624019473586" font-family="Nunito, sans-serif, Segoe UI Emoji" font-size="15.517425596932481px" fill="#1e1e1e" text-anchor="start" style="white-space: pre;" direction="ltr" dominant-baseline="alphabetic">$xx.xx</text></g><g transform="translate(200.28581047850366 1102.6493189659514) rotate(0 23.113193452473524 9.6983909980828)"><text x="0" y="14.803624019473586" font-family="Nunito, sans-serif, Segoe UI Emoji" font-size="15.517425596932481px" fill="#1e1e1e" text-anchor="start" style="white-space: pre;" direction="ltr" dominant-baseline="alphabetic">$xx.xx</text></g><g transform="translate(197.35269399704202 1255.8986446376634) rotate(0 23.113193452473524 9.6983909980828)"><text x="0" y="14.803624019473586" font-family="Nunito, sans-serif, Segoe UI Emoji" font-size="15.517425596932481px" fill="#1e1e1e" text-anchor="start" style="white-space: pre;" direction="ltr" dominant-baseline="alphabetic">$xx.xx</text></g><g transform="translate(441.85019151976485 1136.614567401879) rotate(0 23.113193452473524 9.6983909980828)"><text x="0" y="14.803624019473586" font-family="Nunito, sans-serif, Segoe UI Emoji" font-size="15.517425596932481px" fill="#1e1e1e" text-anchor="start" style="white-space: pre;" direction="ltr" dominant-baseline="alphabetic">$xx.xx</text></g><g transform="translate(539.8481375688857 1073.8560925224351) rotate(0 23.113193452473524 9.6983909980828)"><text x="0" y="14.803624019473586" font-family="Nunito, sans-serif, Segoe UI Emoji" font-size="15.517425596932481px" fill="#1e1e1e" text-anchor="start" style="white-space: pre;" direction="ltr" dominant-baseline="alphabetic">$xx.xx</text></g><g transform="translate(540.8038046191978 1231.1504743253417) rotate(0 23.113193452473524 9.6983909980828)"><text x="0" y="14.803624019473586" font-family="Nunito, sans-serif, Segoe UI Emoji" font-size="15.517425596932481px" fill="#1e1e1e" text-anchor="start" style="white-space: pre;" direction="ltr" dominant-baseline="alphabetic">$xx.xx</text></g><g stroke-linecap="round" transform="translate(321.5572135350926 593.7525958603603) rotate(0 8.428402425417744 6.833014652251933)"><path d="M3.42 0 C7.05 0, 10.68 0, 13.44 0 C15.72 0, 16.86 1.14, 16.86 3.42 C16.86 5.65, 16.86 7.87, 16.86 10.25 C16.86 12.53, 15.72 13.67, 13.44 13.67 C10.35 13.67, 7.25 13.67, 3.42 13.67 C1.14 13.67, 0 12.53, 0 10.25 C0 8.36, 0 6.47, 0 3.42 C0 1.14, 1.14 0, 3.42 0" stroke="none" stroke-width="0" fill="#e9ecef"></path><path d="M3.42 0 C7.02 0, 10.63 0, 13.44 0 M3.42 0 C6.85 0, 10.29 0, 13.44 0 M13.44 0 C15.72 0, 16.86 1.14, 16.86 3.42 M13.44 0 C15.72 0, 16.86 1.14, 16.86 3.42 M16.86 3.42 C16.86 5.32, 16.86 7.23, 16.86 10.25 M16.86 3.42 C16.86 5.33, 16.86 7.24, 16.86 10.25 M16.86 10.25 C16.86 12.53, 15.72 13.67, 13.44 13.67 M16.86 10.25 C16.86 12.53, 15.72 13.67, 13.44 13.67 M13.44 13.67 C9.48 13.67, 5.52 13.67, 3.42 13.67 M13.44 13.67 C9.65 13.67, 5.86 13.67, 3.42 13.67 M3.42 13.67 C1.14 13.67, 0 12.53, 0 10.25 M3.42 13.67 C1.14 13.67, 0 12.53, 0 10.25 M0 10.25 C0 7.68, 0 5.12, 0 3.42 M0 10.25 C0 7.71, 0 5.17, 0 3.42 M0 3.42 C0 1.14, 1.14 0, 3.42 0 M0 3.42 C0 1.14, 1.14 0, 3.42 0" stroke="#1e1e1e" stroke-width="1" fill="none"></path></g><g transform="translate(324.3072891851034 594.696071003444) rotate(0 5.915321325314153 5.915321325314181)"><use href="#image-92674393d5c50159c717b682e053272f7666bd20" width="12" height="12" opacity="1" transform="translate(5.915321325314153 5.915321325314181) scale(-1 1) translate(-5.915321325314153 -5.915321325314181)"></use></g><g stroke-linecap="round" transform="translate(23.72346932048913 591.3180837287182) rotate(0 11.9536685446933 9.69099340436452)"><path d="M4.85 0 C9.64 0, 14.43 0, 19.06 0 C22.29 0, 23.91 1.62, 23.91 4.85 C23.91 8.65, 23.91 12.46, 23.91 14.54 C23.91 17.77, 22.29 19.38, 19.06 19.38 C15.19 19.38, 11.32 19.38, 4.85 19.38 C1.62 19.38, 0 17.77, 0 14.54 C0 10.69, 0 6.85, 0 4.85 C0 1.62, 1.62 0, 4.85 0" stroke="none" stroke-width="0" fill="#e9ecef"></path><path d="M4.85 0 C9.59 0, 14.33 0, 19.06 0 M4.85 0 C10.26 0, 15.67 0, 19.06 0 M19.06 0 C22.29 0, 23.91 1.62, 23.91 4.85 M19.06 0 C22.29 0, 23.91 1.62, 23.91 4.85 M23.91 4.85 C23.91 7.35, 23.91 9.85, 23.91 14.54 M23.91 4.85 C23.91 7.3, 23.91 9.76, 23.91 14.54 M23.91 14.54 C23.91 17.77, 22.29 19.38, 19.06 19.38 M23.91 14.54 C23.91 17.77, 22.29 19.38, 19.06 19.38 M19.06 19.38 C16.21 19.38, 13.37 19.38, 4.85 19.38 M19.06 19.38 C15.52 19.38, 11.98 19.38, 4.85 19.38 M4.85 19.38 C1.62 19.38, 0 17.77, 0 14.54 M4.85 19.38 C1.62 19.38, 0 17.77, 0 14.54 M0 14.54 C0 11.12, 0 7.71, 0 4.85 M0 14.54 C0 10.82, 0 7.11, 0 4.85 M0 4.85 C0 1.62, 1.62 0, 4.85 0 M0 4.85 C0 1.62, 1.62 0, 4.85 0" stroke="#1e1e1e" stroke-width="1" fill="none"></path></g><g stroke-linecap="round"><g transform="translate(40.133020887646126 590.7058668780817) rotate(89.94019561463887 -3.977514856962898 7.31114417847175)"><path d="M0 0 C-1.33 1.34, -7.93 5.61, -7.95 8.05 C-7.98 10.48, -1.46 13.53, -0.16 14.62 M0 0 C-1.33 1.34, -7.93 5.61, -7.95 8.05 C-7.98 10.48, -1.46 13.53, -0.16 14.62" stroke="#1e1e1e" stroke-width="1" fill="none"></path></g></g><mask></mask><g stroke-linecap="round"><g transform="translate(31.359043281803224 598.582811126209) rotate(0 -0.016359490649392683 4.0316796170513385)"><path d="M0 0 C-0.01 1.34, -0.03 6.72, -0.03 8.06 M0 0 C-0.01 1.34, -0.03 6.72, -0.03 8.06" stroke="#1e1e1e" stroke-width="1" fill="none"></path></g></g><mask></mask><g stroke-linecap="round"><g transform="translate(39.92861189800169 598.094830890837) rotate(0 -0.09208056165539347 4.353260461817598)"><path d="M0 0 C-0.03 1.45, -0.15 7.26, -0.18 8.71 M0 0 C-0.03 1.45, -0.15 7.26, -0.18 8.71" stroke="#1e1e1e" stroke-width="1" fill="none"></path></g></g><mask></mask><g stroke-linecap="round" transform="translate(16.582477293644843 1501.4524816115786) rotate(0 302.09358306801255 148.4123169869937)"><path d="M0 0 C163 0, 325.99 0, 604.19 0 M0 0 C219.63 0, 439.26 0, 604.19 0 M604.19 0 C604.19 60.69, 604.19 121.38, 604.19 296.82 M604.19 0 C604.19 64.39, 604.19 128.78, 604.19 296.82 M604.19 296.82 C482.39 296.82, 360.58 296.82, 0 296.82 M604.19 296.82 C390.49 296.82, 176.79 296.82, 0 296.82 M0 296.82 C0 210.35, 0 123.87, 0 0 M0 296.82 C0 214.7, 0 132.58, 0 0" stroke="#1e1e1e" stroke-width="1" fill="none"></path></g><g stroke-linecap="round" transform="translate(551.9781835219069 1505.3068460355817) rotate(0 31.537426081622925 9.802207942214636)"><path d="M4.9 0 C21.09 0, 37.29 0, 58.17 0 C61.44 0, 63.07 1.63, 63.07 4.9 C63.07 8.09, 63.07 11.28, 63.07 14.7 C63.07 17.97, 61.44 19.6, 58.17 19.6 C41.76 19.6, 25.34 19.6, 4.9 19.6 C1.63 19.6, 0 17.97, 0 14.7 C0 10.79, 0 6.88, 0 4.9 C0 1.63, 1.63 0, 4.9 0" stroke="none" stroke-width="0" fill="#e9ecef"></path><path d="M4.9 0 C16.14 0, 27.37 0, 58.17 0 M4.9 0 C18.43 0, 31.95 0, 58.17 0 M58.17 0 C61.44 0, 63.07 1.63, 63.07 4.9 M58.17 0 C61.44 0, 63.07 1.63, 63.07 4.9 M63.07 4.9 C63.07 8.53, 63.07 12.15, 63.07 14.7 M63.07 4.9 C63.07 8.62, 63.07 12.35, 63.07 14.7 M63.07 14.7 C63.07 17.97, 61.44 19.6, 58.17 19.6 M63.07 14.7 C63.07 17.97, 61.44 19.6, 58.17 19.6 M58.17 19.6 C44.3 19.6, 30.43 19.6, 4.9 19.6 M58.17 19.6 C43.26 19.6, 28.35 19.6, 4.9 19.6 M4.9 19.6 C1.63 19.6, 0 17.97, 0 14.7 M4.9 19.6 C1.63 19.6, 0 17.97, 0 14.7 M0 14.7 C0 11.06, 0 7.42, 0 4.9 M0 14.7 C0 12.51, 0 10.31, 0 4.9 M0 4.9 C0 1.63, 1.63 0, 4.9 0 M0 4.9 C0 1.63, 1.63 0, 4.9 0" stroke="#1e1e1e" stroke-width="1" fill="none"></path></g><g transform="translate(571.0345433554157 1510.6800737816511) rotate(0 21.806770152073568 4.4044292689887925)"><text x="0" y="6.722920836184544" font-family="Nunito, sans-serif, Segoe UI Emoji" font-size="7.0470868303821215px" fill="#1e1e1e" text-anchor="start" style="white-space: pre;" direction="ltr" dominant-baseline="alphabetic">Upload Data</text></g><g transform="translate(221.79685974295717 1508.6628119230522) rotate(0 82.53591918945312 9.200000000000045)"><text x="0" y="14.824" font-family="Lilita One, sans-serif, Segoe UI Emoji" font-size="16px" fill="#1e1e1e" text-anchor="start" style="white-space: pre;" direction="ltr" dominant-baseline="alphabetic">BUDGET PERFORMANCE</text></g><g stroke-linecap="round" transform="translate(22.4484079413769 1509.1452855513871) rotate(0 11.9536685446933 9.690993404364463)"><path d="M4.85 0 C8.51 0, 12.17 0, 19.06 0 C22.29 0, 23.91 1.62, 23.91 4.85 C23.91 8.32, 23.91 11.8, 23.91 14.54 C23.91 17.77, 22.29 19.38, 19.06 19.38 C15.25 19.38, 11.44 19.38, 4.85 19.38 C1.62 19.38, 0 17.77, 0 14.54 C0 11.13, 0 7.72, 0 4.85 C0 1.62, 1.62 0, 4.85 0" stroke="none" stroke-width="0" fill="#e9ecef"></path><path d="M4.85 0 C8.99 0, 13.13 0, 19.06 0 M4.85 0 C8.78 0, 12.71 0, 19.06 0 M19.06 0 C22.29 0, 23.91 1.62, 23.91 4.85 M19.06 0 C22.29 0, 23.91 1.62, 23.91 4.85 M23.91 4.85 C23.91 7.05, 23.91 9.25, 23.91 14.54 M23.91 4.85 C23.91 7.23, 23.91 9.61, 23.91 14.54 M23.91 14.54 C23.91 17.77, 22.29 19.38, 19.06 19.38 M23.91 14.54 C23.91 17.77, 22.29 19.38, 19.06 19.38 M19.06 19.38 C16.2 19.38, 13.35 19.38, 4.85 19.38 M19.06 19.38 C15.83 19.38, 12.6 19.38, 4.85 19.38 M4.85 19.38 C1.62 19.38, 0 17.77, 0 14.54 M4.85 19.38 C1.62 19.38, 0 17.77, 0 14.54 M0 14.54 C0 12.09, 0 9.65, 0 4.85 M0 14.54 C0 11.35, 0 8.17, 0 4.85 M0 4.85 C0 1.62, 1.62 0, 4.85 0 M0 4.85 C0 1.62, 1.62 0, 4.85 0" stroke="#1e1e1e" stroke-width="1" fill="none"></path></g><g stroke-linecap="round"><g transform="translate(38.857959508534805 1508.5330687007504) rotate(89.94019561463887 -3.977514856962898 7.31114417847175)"><path d="M0 0 C-1.33 1.34, -7.93 5.61, -7.95 8.05 C-7.98 10.48, -1.46 13.53, -0.16 14.62 M0 0 C-1.33 1.34, -7.93 5.61, -7.95 8.05 C-7.98 10.48, -1.46 13.53, -0.16 14.62" stroke="#1e1e1e" stroke-width="1" fill="none"></path></g></g><mask></mask><g stroke-linecap="round"><g transform="translate(30.08398190269145 1516.410012948878) rotate(0 -0.016359490649392683 4.031679617051395)"><path d="M0 0 C-0.01 1.34, -0.03 6.72, -0.03 8.06 M0 0 C-0.01 1.34, -0.03 6.72, -0.03 8.06" stroke="#1e1e1e" stroke-width="1" fill="none"></path></g></g><mask></mask><g stroke-linecap="round"><g transform="translate(38.65355051889037 1515.9220327135058) rotate(0 -0.09208056165539347 4.3532604618176265)"><path d="M0 0 C-0.03 1.45, -0.15 7.26, -0.18 8.71 M0 0 C-0.03 1.45, -0.15 7.26, -0.18 8.71" stroke="#1e1e1e" stroke-width="1" fill="none"></path></g></g><mask></mask><g transform="translate(555.2490907528841 1508.7163592667403) rotate(0 6.479380125647822 6.479380125647822)"><use href="#image-8e25683aac45c36ee1c90ff4bf005a2257ffb98c" width="13" height="13" opacity="1" transform="translate(6.479380125647822 6.479380125647822) scale(-1 1) translate(-6.479380125647822 -6.479380125647822)"></use></g><g stroke-linecap="round" transform="translate(809.5206292254975 1116.5115085626405) rotate(0 11.9536685446933 9.69099340436452)"><path d="M4.85 0 C9.15 0, 13.45 0, 19.06 0 C22.29 0, 23.91 1.62, 23.91 4.85 C23.91 7.37, 23.91 9.9, 23.91 14.54 C23.91 17.77, 22.29 19.38, 19.06 19.38 C13.78 19.38, 8.49 19.38, 4.85 19.38 C1.62 19.38, 0 17.77, 0 14.54 C0 12.32, 0 10.11, 0 4.85 C0 1.62, 1.62 0, 4.85 0" stroke="none" stroke-width="0" fill="#e9ecef"></path><path d="M4.85 0 C8.74 0, 12.63 0, 19.06 0 M4.85 0 C9.45 0, 14.06 0, 19.06 0 M19.06 0 C22.29 0, 23.91 1.62, 23.91 4.85 M19.06 0 C22.29 0, 23.91 1.62, 23.91 4.85 M23.91 4.85 C23.91 7.52, 23.91 10.2, 23.91 14.54 M23.91 4.85 C23.91 7.12, 23.91 9.39, 23.91 14.54 M23.91 14.54 C23.91 17.77, 22.29 19.38, 19.06 19.38 M23.91 14.54 C23.91 17.77, 22.29 19.38, 19.06 19.38 M19.06 19.38 C16.09 19.38, 13.11 19.38, 4.85 19.38 M19.06 19.38 C15.05 19.38, 11.03 19.38, 4.85 19.38 M4.85 19.38 C1.62 19.38, 0 17.77, 0 14.54 M4.85 19.38 C1.62 19.38, 0 17.77, 0 14.54 M0 14.54 C0 10.67, 0 6.8, 0 4.85 M0 14.54 C0 10.68, 0 6.82, 0 4.85 M0 4.85 C0 1.62, 1.62 0, 4.85 0 M0 4.85 C0 1.62, 1.62 0, 4.85 0" stroke="#1e1e1e" stroke-width="1" fill="none"></path></g><g transform="translate(388.36104131856746 1507.979047650053) rotate(0 9.69948743904638 9.69948743904638)"><use href="#image-52d991d25ae25f467bdf3fd2110a82d2818230c0" width="19" height="19" opacity="1"></use></g><g transform="translate(645.8168633978034 1385.5131309944059) rotate(0 88.7888986530395 88.7888986530395)"><use href="#image-a881854340a80c6250ca7cefa521e6f470b333ac" width="178" height="178" opacity="1"></use></g><g stroke-linecap="round" transform="translate(339.1461757841803 955.9491486892643) rotate(0 8.428402425417744 6.833014652251904)"><path d="M3.42 0 C5.77 0, 8.13 0, 13.44 0 C15.72 0, 16.86 1.14, 16.86 3.42 C16.86 5.28, 16.86 7.14, 16.86 10.25 C16.86 12.53, 15.72 13.67, 13.44 13.67 C10.61 13.67, 7.79 13.67, 3.42 13.67 C1.14 13.67, 0 12.53, 0 10.25 C0 8.28, 0 6.3, 0 3.42 C0 1.14, 1.14 0, 3.42 0" stroke="none" stroke-width="0" fill="#e9ecef"></path><path d="M3.42 0 C7.25 0, 11.09 0, 13.44 0 M3.42 0 C5.85 0, 8.29 0, 13.44 0 M13.44 0 C15.72 0, 16.86 1.14, 16.86 3.42 M13.44 0 C15.72 0, 16.86 1.14, 16.86 3.42 M16.86 3.42 C16.86 4.96, 16.86 6.51, 16.86 10.25 M16.86 3.42 C16.86 4.9, 16.86 6.38, 16.86 10.25 M16.86 10.25 C16.86 12.53, 15.72 13.67, 13.44 13.67 M16.86 10.25 C16.86 12.53, 15.72 13.67, 13.44 13.67 M13.44 13.67 C10.95 13.67, 8.45 13.67, 3.42 13.67 M13.44 13.67 C10.71 13.67, 7.97 13.67, 3.42 13.67 M3.42 13.67 C1.14 13.67, 0 12.53, 0 10.25 M3.42 13.67 C1.14 13.67, 0 12.53, 0 10.25 M0 10.25 C0 8.55, 0 6.84, 0 3.42 M0 10.25 C0 8.34, 0 6.42, 0 3.42 M0 3.42 C0 1.14, 1.14 0, 3.42 0 M0 3.42 C0 1.14, 1.14 0, 3.42 0" stroke="#1e1e1e" stroke-width="1" fill="none"></path></g><g transform="translate(341.8962514341915 956.8926238323481) rotate(0 5.915321325314153 5.915321325314153)"><use href="#image-92674393d5c50159c717b682e053272f7666bd20" width="12" height="12" opacity="1" transform="translate(5.915321325314153 5.915321325314153) scale(-1 1) translate(-5.915321325314153 -5.915321325314153)"></use></g><g transform="translate(833.3044942814045 1532.2585741554185) rotate(0 20.013532754359403 20.013532754359517)"><use href="#image-aa16acab1c2ba5563775955ad2252c97c9d71f60" width="40" height="40" opacity="1"></use></g><g stroke-linecap="round" transform="translate(24.816170924557355 1542.237071406098) rotate(0 296.748668661048 48.23405107389215)"><path d="M0 0 C207.8 0, 415.61 0, 593.5 0 M0 0 C168.03 0, 336.06 0, 593.5 0 M593.5 0 C593.5 33.43, 593.5 66.87, 593.5 96.47 M593.5 0 C593.5 31.37, 593.5 62.74, 593.5 96.47 M593.5 96.47 C464.35 96.47, 335.21 96.47, 0 96.47 M593.5 96.47 C439.59 96.47, 285.69 96.47, 0 96.47 M0 96.47 C0 73.82, 0 51.17, 0 0 M0 96.47 C0 76.91, 0 57.35, 0 0" stroke="#a5d8ff" stroke-width="4" fill="none"></path></g><g stroke-linecap="round"><g transform="translate(41.957137463704385 1590.8457121357833) rotate(0 279.7980479737573 0.5562343132653496)"><path d="M0 0 C93.27 0.19, 466.33 0.93, 559.6 1.11" stroke="#1e1e1e" stroke-width="1.5" fill="none" stroke-dasharray="1.5 7"></path></g></g><mask></mask><g transform="translate(294.04825821816576 1546.95122224734) rotate(0 13.104942321777344 5.041597500326475)"><text x="0" y="8.123547972265138" font-family="Lilita One, sans-serif, Segoe UI Emoji" font-size="8.76799565274165px" fill="#1e1e1e" text-anchor="start" style="white-space: pre;" direction="ltr" dominant-baseline="alphabetic">HOUSE</text></g><g stroke-linecap="round"><g transform="translate(39.001259379205294 1630.491995272776) rotate(0 46.280408346872946 -8.211515292487888)"><path d="M0 0 C15.43 -2.74, 77.13 -13.69, 92.56 -16.42 M0 0 C15.43 -2.74, 77.13 -13.69, 92.56 -16.42" stroke="#40c057" stroke-width="1" fill="none"></path></g></g><mask></mask><g stroke-linecap="round"><g transform="translate(130.6194738760214 1614.5040118556135) rotate(0 70.75067860107401 -3.5415558504852243)"><path d="M0 0 C23.58 -1.18, 117.92 -5.9, 141.5 -7.08 M0 0 C23.58 -1.18, 117.92 -5.9, 141.5 -7.08" stroke="#40c057" stroke-width="1" fill="none"></path></g></g><mask></mask><g stroke-linecap="round"><g transform="translate(271.39348659448024 1607.5409912999248) rotate(0 48.664104287187 -7.974731807922581)"><path d="M0 0 C16.22 -2.66, 81.11 -13.29, 97.33 -15.95 M0 0 C16.22 -2.66, 81.11 -13.29, 97.33 -15.95" stroke="#40c057" stroke-width="1" fill="none"></path></g></g><mask></mask><g stroke-linecap="round"><g transform="translate(369.0751709927026 1591.3966628068297) rotate(0 65.44627537267615 -6.6763879164780064)"><path d="M0 0 C21.82 -2.23, 109.08 -11.13, 130.89 -13.35 M0 0 C21.82 -2.23, 109.08 -11.13, 130.89 -13.35" stroke="#e03131" stroke-width="1" fill="none"></path></g></g><mask></mask><g stroke-linecap="round"><g transform="translate(500.169055398153 1578.001831927384) rotate(0 48.38920599163862 -10.048673546282089)"><path d="M0 0 C16.13 -3.35, 80.65 -16.75, 96.78 -20.1 M0 0 C16.13 -3.35, 80.65 -16.75, 96.78 -20.1" stroke="#e03131" stroke-width="1" fill="none"></path></g></g><mask></mask><g stroke-linecap="round" transform="translate(23.297113237760186 1540.5568772466877) rotate(0 298.28222138827186 49.847556575428825)"><path d="M0 0 C230.51 0, 461.03 0, 596.56 0 M0 0 C162.99 0, 325.97 0, 596.56 0 M596.56 0 C596.56 23.91, 596.56 47.82, 596.56 99.7 M596.56 0 C596.56 36.63, 596.56 73.26, 596.56 99.7 M596.56 99.7 C417.74 99.7, 238.92 99.7, 0 99.7 M596.56 99.7 C360.97 99.7, 125.38 99.7, 0 99.7 M0 99.7 C0 62.86, 0 26.03, 0 0 M0 99.7 C0 66.28, 0 32.87, 0 0" stroke="#1e1e1e" stroke-width="1" fill="none"></path></g><g stroke-linecap="round" transform="translate(26.508438597531494 1650.8972601363625) rotate(0 296.748668661048 48.23405107389215)"><path d="M0 0 C176.58 0, 353.16 0, 593.5 0 M0 0 C140.53 0, 281.05 0, 593.5 0 M593.5 0 C593.5 35.28, 593.5 70.57, 593.5 96.47 M593.5 0 C593.5 36.08, 593.5 72.15, 593.5 96.47 M593.5 96.47 C379.17 96.47, 164.84 96.47, 0 96.47 M593.5 96.47 C417.42 96.47, 241.34 96.47, 0 96.47 M0 96.47 C0 65.06, 0 33.65, 0 0 M0 96.47 C0 74.58, 0 52.69, 0 0" stroke="#96f2d7" stroke-width="4" fill="none"></path></g><g stroke-linecap="round" transform="translate(24.97192042141569 1649.0898565246666) rotate(0 298.28222138827186 49.847556575428825)"><path d="M0 0 C181.77 0, 363.54 0, 596.56 0 M0 0 C185.63 0, 371.26 0, 596.56 0 M596.56 0 C596.56 25.75, 596.56 51.49, 596.56 99.7 M596.56 0 C596.56 35.03, 596.56 70.06, 596.56 99.7 M596.56 99.7 C437.82 99.7, 279.08 99.7, 0 99.7 M596.56 99.7 C413.78 99.7, 231 99.7, 0 99.7 M0 99.7 C0 69.38, 0 39.06, 0 0 M0 99.7 C0 77.71, 0 55.73, 0 0" stroke="#1e1e1e" stroke-width="1" fill="none"></path></g><g stroke-linecap="round"><g transform="translate(43.63194464736034 1699.3786914137622) rotate(0 279.7980479737573 0.5562343132653496)"><path d="M0 0 C93.27 0.19, 466.33 0.93, 559.6 1.11" stroke="#1e1e1e" stroke-width="1.5" fill="none" stroke-dasharray="1.5 7"></path></g></g><mask></mask><g transform="translate(295.63658987901454 1655.4005155355048) rotate(0 14.116714477539062 5.041597500326475)"><text x="0" y="8.123547972265138" font-family="Lilita One, sans-serif, Segoe UI Emoji" font-size="8.76799565274165px" fill="#1e1e1e" text-anchor="start" style="white-space: pre;" direction="ltr" dominant-baseline="alphabetic">LIVING</text></g><g stroke-linecap="round"><g transform="translate(40.67606656286125 1739.024974550755) rotate(0 46.280408346872946 -8.211515292487888)"><path d="M0 0 C15.43 -2.74, 77.13 -13.69, 92.56 -16.42 M0 0 C15.43 -2.74, 77.13 -13.69, 92.56 -16.42" stroke="#40c057" stroke-width="1" fill="none"></path></g></g><mask></mask><g stroke-linecap="round"><g transform="translate(132.29428105967736 1723.036991133593) rotate(0 67.04478401882011 -11.621438167006318)"><path d="M0 0 C22.35 -3.87, 111.74 -19.37, 134.09 -23.24 M0 0 C22.35 -3.87, 111.74 -19.37, 134.09 -23.24" stroke="#40c057" stroke-width="1" fill="none"></path></g></g><mask></mask><g stroke-linecap="round"><g transform="translate(267.83015837037055 1699.5335283996897) rotate(0 116.90618527567017 -6.478331073918639)"><path d="M0 0 C38.97 -2.16, 194.84 -10.8, 233.81 -12.96 M0 0 C38.97 -2.16, 194.84 -10.8, 233.81 -12.96" stroke="#e03131" stroke-width="1" fill="none"></path></g></g><mask></mask><g stroke-linecap="round"><g transform="translate(501.8438625818085 1686.5348112053634) rotate(0 48.38920599163862 -10.048673546282089)"><path d="M0 0 C16.13 -3.35, 80.65 -16.75, 96.78 -20.1 M0 0 C16.13 -3.35, 80.65 -16.75, 96.78 -20.1" stroke="#e03131" stroke-width="1" fill="none"></path></g></g><mask></mask><g transform="translate(10 2156.8918279377435) rotate(0 203.5739792153313 49.999999999999886)"><text x="0" y="15.264000000000001" font-family="Nunito, sans-serif, Segoe UI Emoji" font-size="16px" fill="#1971c2" text-anchor="start" style="white-space: pre;" direction="ltr" dominant-baseline="alphabetic">Goals?</text><text x="0" y="35.264" font-family="Nunito, sans-serif, Segoe UI Emoji" font-size="16px" fill="#1971c2" text-anchor="start" style="white-space: pre;" direction="ltr" dominant-baseline="alphabetic"></text><text x="0" y="55.264" font-family="Nunito, sans-serif, Segoe UI Emoji" font-size="16px" fill="#1971c2" text-anchor="start" style="white-space: pre;" direction="ltr" dominant-baseline="alphabetic">1. Classify expenses into the budget categories</text><text x="0" y="75.264" font-family="Nunito, sans-serif, Segoe UI Emoji" font-size="16px" fill="#1971c2" text-anchor="start" style="white-space: pre;" direction="ltr" dominant-baseline="alphabetic">2. Understand if the budget is actually on track for a</text><text x="0" y="95.264" font-family="Nunito, sans-serif, Segoe UI Emoji" font-size="16px" fill="#1971c2" text-anchor="start" style="white-space: pre;" direction="ltr" dominant-baseline="alphabetic">given period</text></g><g stroke-linecap="round"><g transform="translate(21.82192971496488 1757.4694974514669) rotate(0 295.6570229461181 0.6708826850072)"><path d="M0 0 C203.44 0.46, 406.89 0.92, 591.31 1.34 M0 0 C185.4 0.42, 370.8 0.84, 591.31 1.34" stroke="#1e1e1e" stroke-width="1" fill="none"></path></g></g><mask></mask><g transform="translate(231.0560707663035 1769.9017821847738) rotate(0 94.16792297363281 9.200000000000045)"><text x="0" y="14.824" font-family="Lilita One, sans-serif, Segoe UI Emoji" font-size="16px" fill="#1e1e1e" text-anchor="start" style="white-space: pre;" direction="ltr" dominant-baseline="alphabetic">Mar 1, 2026 - Mar 31, 2026</text></g><g stroke-linecap="round"><g transform="translate(216.7598635655986 1774.6812260488982) rotate(0 -3.977514856962898 4.355086575457904)"><path d="M0 0 C-1.33 0.8, -7.93 3.34, -7.95 4.79 C-7.98 6.24, -1.46 8.06, -0.16 8.71 M0 0 C-1.33 0.8, -7.93 3.34, -7.95 4.79 C-7.98 6.24, -1.46 8.06, -0.16 8.71" stroke="#1e1e1e" stroke-width="1" fill="none"></path></g></g><mask></mask><g stroke-linecap="round"><g transform="translate(208.96378287275456 1779.3158441851738) rotate(0 8.465353472491643 0.09223882132573635)"><path d="M0 0 C2.82 0.03, 14.11 0.15, 16.93 0.18 M0 0 C2.82 0.03, 14.11 0.15, 16.93 0.18" stroke="#1e1e1e" stroke-width="1" fill="none"></path></g></g><mask></mask><g stroke-linecap="round"><g transform="translate(443.20908528935706 1775.0596133996714) rotate(179.2785114347397 -3.977514856962898 4.355086575457904)"><path d="M0 0 C-1.33 0.8, -7.93 3.34, -7.95 4.79 C-7.98 6.24, -1.46 8.06, -0.16 8.71 M0 0 C-1.33 0.8, -7.93 3.34, -7.95 4.79 C-7.98 6.24, -1.46 8.06, -0.16 8.71" stroke="#1e1e1e" stroke-width="1" fill="none"></path></g></g><mask></mask><g stroke-linecap="round"><g transform="translate(426.1151163932964 1779.0092326810413) rotate(179.2785114347397 8.465353472491643 0.09223882132573635)"><path d="M0 0 C2.82 0.03, 14.11 0.15, 16.93 0.18 M0 0 C2.82 0.03, 14.11 0.15, 16.93 0.18" stroke="#1e1e1e" stroke-width="1" fill="none"></path></g></g><mask></mask><g stroke-linecap="round" transform="translate(587.1972571680244 1767.7646283547847) rotate(0 13.473206966264343 10.922902819124033)"><path d="M5.46 0 C9.89 0, 14.32 0, 21.48 0 C25.13 0, 26.95 1.82, 26.95 5.46 C26.95 9.67, 26.95 13.87, 26.95 16.38 C26.95 20.03, 25.13 21.85, 21.48 21.85 C15.17 21.85, 8.85 21.85, 5.46 21.85 C1.82 21.85, 0 20.03, 0 16.38 C0 13.29, 0 10.2, 0 5.46 C0 1.82, 1.82 0, 5.46 0" stroke="none" stroke-width="0" fill="#e9ecef"></path><path d="M5.46 0 C10.23 0, 15 0, 21.48 0 M5.46 0 C11.82 0, 18.19 0, 21.48 0 M21.48 0 C25.13 0, 26.95 1.82, 26.95 5.46 M21.48 0 C25.13 0, 26.95 1.82, 26.95 5.46 M26.95 5.46 C26.95 9.39, 26.95 13.31, 26.95 16.38 M26.95 5.46 C26.95 8.85, 26.95 12.24, 26.95 16.38 M26.95 16.38 C26.95 20.03, 25.13 21.85, 21.48 21.85 M26.95 16.38 C26.95 20.03, 25.13 21.85, 21.48 21.85 M21.48 21.85 C17.87 21.85, 14.26 21.85, 5.46 21.85 M21.48 21.85 C17.2 21.85, 12.91 21.85, 5.46 21.85 M5.46 21.85 C1.82 21.85, 0 20.03, 0 16.38 M5.46 21.85 C1.82 21.85, 0 20.03, 0 16.38 M0 16.38 C0 13.98, 0 11.57, 0 5.46 M0 16.38 C0 14.06, 0 11.74, 0 5.46 M0 5.46 C0 1.82, 1.82 0, 5.46 0 M0 5.46 C0 1.82, 1.82 0, 5.46 0" stroke="#1e1e1e" stroke-width="1" fill="none"></path></g><g transform="translate(591.5933854655705 1769.272818783846) rotate(0 9.455925864143182 9.455925864143182)"><use href="#image-92674393d5c50159c717b682e053272f7666bd20" width="19" height="19" opacity="1" transform="translate(9.455925864143182 9.455925864143182) scale(-1 1) translate(-9.455925864143182 -9.455925864143182)"></use></g><g stroke-linecap="round" transform="translate(15.341018990978228 1818.297272463844) rotate(0 302.09358306801255 148.4123169869937)"><path d="M0 0 C204.06 0, 408.13 0, 604.19 0 M0 0 C165.44 0, 330.88 0, 604.19 0 M604.19 0 C604.19 60.32, 604.19 120.63, 604.19 296.82 M604.19 0 C604.19 93.12, 604.19 186.23, 604.19 296.82 M604.19 296.82 C472.77 296.82, 341.36 296.82, 0 296.82 M604.19 296.82 C468.62 296.82, 333.04 296.82, 0 296.82 M0 296.82 C0 183.46, 0 70.1, 0 0 M0 296.82 C0 237.43, 0 178.04, 0 0" stroke="#1e1e1e" stroke-width="1" fill="none"></path></g><g stroke-linecap="round" transform="translate(550.7367252192407 1822.1516368878474) rotate(0 31.537426081622925 9.802207942214636)"><path d="M4.9 0 C21.92 0, 38.94 0, 58.17 0 C61.44 0, 63.07 1.63, 63.07 4.9 C63.07 8.15, 63.07 11.4, 63.07 14.7 C63.07 17.97, 61.44 19.6, 58.17 19.6 C39.01 19.6, 19.84 19.6, 4.9 19.6 C1.63 19.6, 0 17.97, 0 14.7 C0 12.47, 0 10.25, 0 4.9 C0 1.63, 1.63 0, 4.9 0" stroke="none" stroke-width="0" fill="#e9ecef"></path><path d="M4.9 0 C21.44 0, 37.98 0, 58.17 0 M4.9 0 C22.39 0, 39.89 0, 58.17 0 M58.17 0 C61.44 0, 63.07 1.63, 63.07 4.9 M58.17 0 C61.44 0, 63.07 1.63, 63.07 4.9 M63.07 4.9 C63.07 6.99, 63.07 9.08, 63.07 14.7 M63.07 4.9 C63.07 7.22, 63.07 9.53, 63.07 14.7 M63.07 14.7 C63.07 17.97, 61.44 19.6, 58.17 19.6 M63.07 14.7 C63.07 17.97, 61.44 19.6, 58.17 19.6 M58.17 19.6 C46.1 19.6, 34.03 19.6, 4.9 19.6 M58.17 19.6 C39.71 19.6, 21.25 19.6, 4.9 19.6 M4.9 19.6 C1.63 19.6, 0 17.97, 0 14.7 M4.9 19.6 C1.63 19.6, 0 17.97, 0 14.7 M0 14.7 C0 11.09, 0 7.48, 0 4.9 M0 14.7 C0 11.52, 0 8.33, 0 4.9 M0 4.9 C0 1.63, 1.63 0, 4.9 0 M0 4.9 C0 1.63, 1.63 0, 4.9 0" stroke="#1e1e1e" stroke-width="1" fill="none"></path></g><g transform="translate(569.7930850527491 1827.5248646339164) rotate(0 21.806770152073568 4.4044292689887925)"><text x="0" y="6.722920836184544" font-family="Nunito, sans-serif, Segoe UI Emoji" font-size="7.0470868303821215px" fill="#1e1e1e" text-anchor="start" style="white-space: pre;" direction="ltr" dominant-baseline="alphabetic">Upload Data</text></g><g transform="translate(220.55540144029055 1825.5076027753175) rotate(0 82.53591918945312 9.200000000000045)"><text x="0" y="14.824" font-family="Lilita One, sans-serif, Segoe UI Emoji" font-size="16px" fill="#1e1e1e" text-anchor="start" style="white-space: pre;" direction="ltr" dominant-baseline="alphabetic">BUDGET PERFORMANCE</text></g><g transform="translate(554.0076324502179 1825.561150119006) rotate(0 6.479380125647822 6.479380125647822)"><use href="#image-8e25683aac45c36ee1c90ff4bf005a2257ffb98c" width="13" height="13" opacity="1" transform="translate(6.479380125647822 6.479380125647822) scale(-1 1) translate(-6.479380125647822 -6.479380125647822)"></use></g><g transform="translate(387.1195830159013 1824.8238385023183) rotate(0 9.69948743904638 9.69948743904638)"><use href="#image-52d991d25ae25f467bdf3fd2110a82d2818230c0" width="19" height="19" opacity="1"></use></g><g stroke-linecap="round" transform="translate(23.56093615813097 1859.6362805213253) rotate(0 296.748668661048 48.23405107389215)"><path d="M0 0 C185.66 0, 371.32 0, 593.5 0 M0 0 C140.41 0, 280.82 0, 593.5 0 M593.5 0 C593.5 37.88, 593.5 75.76, 593.5 96.47 M593.5 0 C593.5 37.55, 593.5 75.1, 593.5 96.47 M593.5 96.47 C439.08 96.47, 284.66 96.47, 0 96.47 M593.5 96.47 C446.93 96.47, 300.35 96.47, 0 96.47 M0 96.47 C0 67.36, 0 38.25, 0 0 M0 96.47 C0 71.74, 0 47.02, 0 0" stroke="#d0bfff" stroke-width="4" fill="none"></path></g><g stroke-linecap="round" transform="translate(22.041878471333803 1857.9560863619145) rotate(0 298.28222138827186 49.847556575428825)"><path d="M0 0 C220.81 0, 441.63 0, 596.56 0 M0 0 C158.3 0, 316.61 0, 596.56 0 M596.56 0 C596.56 34.19, 596.56 68.39, 596.56 99.7 M596.56 0 C596.56 35.29, 596.56 70.58, 596.56 99.7 M596.56 99.7 C393.61 99.7, 190.66 99.7, 0 99.7 M596.56 99.7 C427.96 99.7, 259.36 99.7, 0 99.7 M0 99.7 C0 68.99, 0 38.29, 0 0 M0 99.7 C0 71.6, 0 43.51, 0 0" stroke="#1e1e1e" stroke-width="1" fill="none"></path></g><g stroke-linecap="round"><g transform="translate(38.60990096703199 1947.4642064356285) rotate(0 279.9980525347812 -20.768389917245713)"><path d="M0 0 C93.33 -6.92, 466.66 -34.61, 560 -41.54" stroke="#1e1e1e" stroke-width="1.5" fill="none" stroke-dasharray="1.5 7"></path></g></g><mask></mask><g transform="translate(292.92635982575575 1864.3504313625667) rotate(0 18.24706268310547 5.041597500326475)"><text x="0" y="8.123547972265138" font-family="Lilita One, sans-serif, Segoe UI Emoji" font-size="8.76799565274165px" fill="#1e1e1e" text-anchor="start" style="white-space: pre;" direction="ltr" dominant-baseline="alphabetic">GROCERY</text></g><g stroke-linecap="round"><g transform="translate(37.87936098679438 1947.8912043880027) rotate(0 48.94713582718691 -1.5159603041994387)"><path d="M0 0 C16.32 -0.51, 81.58 -2.53, 97.89 -3.03 M0 0 C16.32 -0.51, 81.58 -2.53, 97.89 -3.03" stroke="#40c057" stroke-width="1" fill="none"></path></g></g><mask></mask><g stroke-linecap="round"><g transform="translate(135.22644176028598 1944.788572287358) rotate(0 11.26426456606896 -2.9863707759196814)"><path d="M0 0 C3.75 -1, 18.77 -4.98, 22.53 -5.97 M0 0 C3.75 -1, 18.77 -4.98, 22.53 -5.97" stroke="#40c057" stroke-width="1" fill="none"></path></g></g><mask></mask><g stroke-linecap="round"><g transform="translate(292.9369521268809 1929.067911351111) rotate(0 59.25728391852067 -2.8429643617911324)"><path d="M0 0 C19.75 -0.95, 98.76 -4.74, 118.51 -5.69 M0 0 C19.75 -0.95, 98.76 -4.74, 118.51 -5.69" stroke="#40c057" stroke-width="1" fill="none"></path></g></g><mask></mask><g stroke-linecap="round"><g transform="translate(447.5782561529959 1905.3330792466245) rotate(0 74.12365641801193 -14.991290481593978)"><path d="M0 0 C24.71 -5, 123.54 -24.99, 148.25 -29.98 M0 0 C24.71 -5, 123.54 -24.99, 148.25 -29.98" stroke="#e03131" stroke-width="1" fill="none"></path></g></g><mask></mask><g stroke-linecap="round" transform="translate(25.26698029486488 1967.7420509886279) rotate(0 296.748668661048 48.23405107389215)"><path d="M0 0 C181.65 0, 363.3 0, 593.5 0 M0 0 C160.27 0, 320.53 0, 593.5 0 M593.5 0 C593.5 34.68, 593.5 69.35, 593.5 96.47 M593.5 0 C593.5 27.54, 593.5 55.08, 593.5 96.47 M593.5 96.47 C375.69 96.47, 157.88 96.47, 0 96.47 M593.5 96.47 C469.09 96.47, 344.69 96.47, 0 96.47 M0 96.47 C0 67.24, 0 38.01, 0 0 M0 96.47 C0 58.38, 0 20.3, 0 0" stroke="#96f2d7" stroke-width="4" fill="none"></path></g><g stroke-linecap="round" transform="translate(23.73046211874953 1965.934647376932) rotate(0 298.28222138827186 49.847556575428825)"><path d="M0 0 C120.53 0, 241.07 0, 596.56 0 M0 0 C181.68 0, 363.37 0, 596.56 0 M596.56 0 C596.56 31.56, 596.56 63.12, 596.56 99.7 M596.56 0 C596.56 38.68, 596.56 77.37, 596.56 99.7 M596.56 99.7 C376.75 99.7, 156.94 99.7, 0 99.7 M596.56 99.7 C402.77 99.7, 208.98 99.7, 0 99.7 M0 99.7 C0 71.85, 0 44, 0 0 M0 99.7 C0 73.38, 0 47.06, 0 0" stroke="#1e1e1e" stroke-width="1" fill="none"></path></g><g stroke-linecap="round"><g transform="translate(42.39048634469418 2016.2234822660275) rotate(0 279.7980479737573 0.5562343132653496)"><path d="M0 0 C93.27 0.19, 466.33 0.93, 559.6 1.11" stroke="#1e1e1e" stroke-width="1.5" fill="none" stroke-dasharray="1.5 7"></path></g></g><mask></mask><g transform="translate(294.39513157634883 1972.2453063877701) rotate(0 14.116714477539062 5.041597500326475)"><text x="0" y="8.123547972265138" font-family="Lilita One, sans-serif, Segoe UI Emoji" font-size="8.76799565274165px" fill="#1e1e1e" text-anchor="start" style="white-space: pre;" direction="ltr" dominant-baseline="alphabetic">LIVING</text></g><g stroke-linecap="round"><g transform="translate(39.43460826019509 2055.86976540302) rotate(0 46.280408346872946 -8.211515292487888)"><path d="M0 0 C15.43 -2.74, 77.13 -13.69, 92.56 -16.42 M0 0 C15.43 -2.74, 77.13 -13.69, 92.56 -16.42" stroke="#40c057" stroke-width="1" fill="none"></path></g></g><mask></mask><g stroke-linecap="round"><g transform="translate(131.0528227570112 2039.8817819858582) rotate(0 67.04478401882011 -11.621438167006318)"><path d="M0 0 C22.35 -3.87, 111.74 -19.37, 134.09 -23.24 M0 0 C22.35 -3.87, 111.74 -19.37, 134.09 -23.24" stroke="#40c057" stroke-width="1" fill="none"></path></g></g><mask></mask><g stroke-linecap="round"><g transform="translate(266.58870006770394 2016.378319251955) rotate(0 116.90618527567017 -6.478331073918639)"><path d="M0 0 C38.97 -2.16, 194.84 -10.8, 233.81 -12.96 M0 0 C38.97 -2.16, 194.84 -10.8, 233.81 -12.96" stroke="#e03131" stroke-width="1" fill="none"></path></g></g><mask></mask><g stroke-linecap="round"><g transform="translate(500.6024042791423 2003.3796020576287) rotate(0 48.38920599163862 -10.048673546282089)"><path d="M0 0 C16.13 -3.35, 80.65 -16.75, 96.78 -20.1 M0 0 C16.13 -3.35, 80.65 -16.75, 96.78 -20.1" stroke="#e03131" stroke-width="1" fill="none"></path></g></g><mask></mask><g stroke-linecap="round"><g transform="translate(20.58047141229872 2074.3142883037326) rotate(0 295.6570229461181 0.6708826850072)"><path d="M0 0 C187.19 0.42, 374.38 0.85, 591.31 1.34 M0 0 C229.44 0.52, 458.89 1.04, 591.31 1.34" stroke="#1e1e1e" stroke-width="1" fill="none"></path></g></g><mask></mask><g transform="translate(229.8146124636378 2086.746573037039) rotate(0 94.16792297363281 9.200000000000045)"><text x="0" y="14.824" font-family="Lilita One, sans-serif, Segoe UI Emoji" font-size="16px" fill="#1e1e1e" text-anchor="start" style="white-space: pre;" direction="ltr" dominant-baseline="alphabetic">Mar 1, 2026 - Mar 31, 2026</text></g><g stroke-linecap="round"><g transform="translate(215.5184052629329 2091.5260169011635) rotate(0 -3.977514856962898 4.355086575457904)"><path d="M0 0 C-1.33 0.8, -7.93 3.34, -7.95 4.79 C-7.98 6.24, -1.46 8.06, -0.16 8.71 M0 0 C-1.33 0.8, -7.93 3.34, -7.95 4.79 C-7.98 6.24, -1.46 8.06, -0.16 8.71" stroke="#1e1e1e" stroke-width="1" fill="none"></path></g></g><mask></mask><g stroke-linecap="round"><g transform="translate(207.72232457008886 2096.1606350374395) rotate(0 8.465353472491643 0.09223882132573635)"><path d="M0 0 C2.82 0.03, 14.11 0.15, 16.93 0.18 M0 0 C2.82 0.03, 14.11 0.15, 16.93 0.18" stroke="#1e1e1e" stroke-width="1" fill="none"></path></g></g><mask></mask><g stroke-linecap="round"><g transform="translate(441.96762698669136 2091.9044042519367) rotate(179.2785114347397 -3.977514856962898 4.355086575457904)"><path d="M0 0 C-1.33 0.8, -7.93 3.34, -7.95 4.79 C-7.98 6.24, -1.46 8.06, -0.16 8.71 M0 0 C-1.33 0.8, -7.93 3.34, -7.95 4.79 C-7.98 6.24, -1.46 8.06, -0.16 8.71" stroke="#1e1e1e" stroke-width="1" fill="none"></path></g></g><mask></mask><g stroke-linecap="round"><g transform="translate(424.87365809063067 2095.8540235333066) rotate(179.2785114347397 8.465353472491643 0.09223882132573635)"><path d="M0 0 C2.82 0.03, 14.11 0.15, 16.93 0.18 M0 0 C2.82 0.03, 14.11 0.15, 16.93 0.18" stroke="#1e1e1e" stroke-width="1" fill="none"></path></g></g><mask></mask><g stroke-linecap="round" transform="translate(585.9557988653587 2084.6094192070505) rotate(0 13.473206966264343 10.922902819124033)"><path d="M5.46 0 C9.64 0, 13.81 0, 21.48 0 C25.13 0, 26.95 1.82, 26.95 5.46 C26.95 9.05, 26.95 12.65, 26.95 16.38 C26.95 20.03, 25.13 21.85, 21.48 21.85 C16.43 21.85, 11.38 21.85, 5.46 21.85 C1.82 21.85, 0 20.03, 0 16.38 C0 13.17, 0 9.95, 0 5.46 C0 1.82, 1.82 0, 5.46 0" stroke="none" stroke-width="0" fill="#e9ecef"></path><path d="M5.46 0 C11.34 0, 17.22 0, 21.48 0 M5.46 0 C8.82 0, 12.18 0, 21.48 0 M21.48 0 C25.13 0, 26.95 1.82, 26.95 5.46 M21.48 0 C25.13 0, 26.95 1.82, 26.95 5.46 M26.95 5.46 C26.95 7.87, 26.95 10.27, 26.95 16.38 M26.95 5.46 C26.95 8.85, 26.95 12.23, 26.95 16.38 M26.95 16.38 C26.95 20.03, 25.13 21.85, 21.48 21.85 M26.95 16.38 C26.95 20.03, 25.13 21.85, 21.48 21.85 M21.48 21.85 C17.38 21.85, 13.28 21.85, 5.46 21.85 M21.48 21.85 C16.93 21.85, 12.37 21.85, 5.46 21.85 M5.46 21.85 C1.82 21.85, 0 20.03, 0 16.38 M5.46 21.85 C1.82 21.85, 0 20.03, 0 16.38 M0 16.38 C0 13.6, 0 10.81, 0 5.46 M0 16.38 C0 13.81, 0 11.24, 0 5.46 M0 5.46 C0 1.82, 1.82 0, 5.46 0 M0 5.46 C0 1.82, 1.82 0, 5.46 0" stroke="#1e1e1e" stroke-width="1" fill="none"></path></g><g transform="translate(590.3519271629038 2086.1176096361114) rotate(0 9.455925864143182 9.455925864143182)"><use href="#image-92674393d5c50159c717b682e053272f7666bd20" width="19" height="19" opacity="1" transform="translate(9.455925864143182 9.455925864143182) scale(-1 1) translate(-9.455925864143182 -9.455925864143182)"></use></g><g stroke-linecap="round"><g transform="translate(35.40309307288226 1832.8742509193603) rotate(0 -3.977514856962898 4.355086575457904)"><path d="M0 0 C-1.33 0.8, -7.93 3.34, -7.95 4.79 C-7.98 6.24, -1.46 8.06, -0.16 8.71 M0 0 C-1.33 0.8, -7.93 3.34, -7.95 4.79 C-7.98 6.24, -1.46 8.06, -0.16 8.71" stroke="#1e1e1e" stroke-width="1" fill="none"></path></g></g><mask></mask><g stroke-linecap="round"><g transform="translate(27.607012380038213 1837.5088690556358) rotate(0 8.465353472491643 0.09223882132573635)"><path d="M0 0 C2.82 0.03, 14.11 0.15, 16.93 0.18 M0 0 C2.82 0.03, 14.11 0.15, 16.93 0.18" stroke="#1e1e1e" stroke-width="1" fill="none"></path></g></g><mask></mask><g stroke-linecap="round"><g transform="translate(158.23430583005847 1938.7200075608903) rotate(0 26.72216404988717 -4.645260917028736)"><path d="M0 0 C14.34 -2.49, 28.68 -4.99, 53.44 -9.29 M0 0 C16.16 -2.81, 32.31 -5.62, 53.44 -9.29" stroke="#fab005" stroke-width="1" fill="none"></path></g></g><mask></mask><g stroke-linecap="round"><g transform="translate(212.23075424738772 1929.423356350629) rotate(0 39.85379249184871 -0.48961232211320294)"><path d="M0 0 C25.14 -0.31, 50.27 -0.62, 79.71 -0.98 M0 0 C17.54 -0.22, 35.08 -0.43, 79.71 -0.98" stroke="#fab005" stroke-width="1" fill="none"></path></g></g><mask></mask><g stroke-linecap="round"><g transform="translate(411.7921765581941 1923.4052012148645) rotate(0 7.887480601568086 -2.2842384146333643)"><path d="M0 0 C2.63 -0.76, 13.15 -3.81, 15.77 -4.57 M0 0 C2.63 -0.76, 13.15 -3.81, 15.77 -4.57" stroke="#40c057" stroke-width="1" fill="none"></path></g></g><mask></mask><g stroke-linecap="round"><g transform="translate(428.1682515021025 1918.7686144304312) rotate(0 9.37813916052005 -6.624388754013239)"><path d="M0 0 C6.56 -4.63, 13.11 -9.26, 18.76 -13.25 M0 0 C5.34 -3.77, 10.69 -7.55, 18.76 -13.25" stroke="#fab005" stroke-width="1" fill="none"></path></g></g><mask></mask></svg>